<?xml version="1.0" encoding="UTF-8" standalone="no"?>
<!DOCTYPE svg PUBLIC "-//W3C//DTD SVG 1.1//EN" "http://www.w3.org/Graphics/SVG/1.1/DTD/svg11.dtd">
<svg width="100%" height="100%" viewBox="0 0 181 182" version="1.1" xmlns="http://www.w3.org/2000/svg" xmlns:xlink="http://www.w3.org/1999/xlink" xml:space="preserve" xmlns:serif="http://www.serif.com/" style="fill-rule:evenodd;clip-rule:evenodd;stroke-linejoin:round;stroke-miterlimit:2;">
    <g transform="matrix(1,0,0,1,-1186,-1237)">
        <g transform="matrix(1,0,0,1,-1,-1)">
            <rect id="Icons" x="1171" y="1198" width="750" height="261" style="fill:none;"/>
            <g id="Icons1" serif:id="Icons">
                <g>
                    <g transform="matrix(1.01685,0,0,0.978495,-148.129,7.05376)">
                        <path d="M1491,1270.61C1491,1263.65 1485.56,1258 1478.87,1258L1325.13,1258C1318.44,1258 1313,1263.65 1313,1270.61L1313,1431.39C1313,1438.35 1318.44,1444 1325.13,1444L1478.87,1444C1485.56,1444 1491,1438.35 1491,1431.39L1491,1270.61Z" style="fill:rgb(10,102,194);"/>
                    </g>
                    <g transform="matrix(0.970588,0,0,0.970588,-75.0294,27.4412)">
                        <circle cx="1342" cy="1290" r="17" style="fill:white;"/>
                    </g>
                    <g transform="matrix(0.97169,0,0,1.01235,-75.6401,-26.3086)">
                        <rect x="1326" y="1321" width="29" height="81" style="fill:white;"/>
                    </g>
                    <g transform="matrix(1,0,0,1,-115,-9)">
                        <path d="M1400.38,1330.33C1421.82,1308.09 1454.07,1322.25 1454,1355C1453.97,1369.81 1454,1402 1454,1402L1429,1402L1429,1354C1429,1338.33 1404.38,1338.07 1400.38,1352.4L1400.38,1402L1372.21,1402L1372.21,1319L1400.38,1319L1400.38,1330.33Z" style="fill:white;"/>
                    </g>
                </g>
            </g>
        </g>
    </g>
</svg>
